%
M48
M72
T01C0.04000
T02C0.04291
T03C0.06299
T04C0.09449
%
T01
X90737Y40816
X100737Y40816
X110737Y40816
X120737Y40816
X120737Y50816
X120737Y60816
X110737Y60816
X100737Y60816
X90737Y60816
X90737Y50816
X100737Y50816
X110737Y50816
X140737Y50816
X140737Y60816
X150737Y60816
X160737Y60816
X170737Y60816
X170737Y50816
X160737Y50816
X150737Y50816
X150737Y40816
X140737Y40816
X160737Y40816
X170737Y40816
X190737Y40816
X200737Y40816
X210737Y40816
X220737Y40816
X220737Y50816
X220737Y60816
X210737Y60816
X200737Y60816
X190737Y60816
X190737Y50816
X200737Y50816
X210737Y50816
X240737Y50816
X240737Y60816
X250737Y60816
X260737Y60816
X270737Y60816
X270737Y50816
X260737Y50816
X250737Y50816
X250737Y40816
X240737Y40816
X260737Y40816
X270737Y40816
X241957Y94950
X241957Y114950
X228572Y169083
X228572Y179083
X228572Y189083
X228572Y199083
X220737Y220816
X220737Y230816
X210737Y230816
X200737Y230816
X190737Y230816
X190737Y220816
X200737Y220816
X210737Y220816
X210737Y240816
X200737Y240816
X190737Y240816
X170737Y240816
X160737Y240816
X150737Y240816
X140737Y240816
X140737Y230816
X150737Y230816
X160737Y230816
X170737Y230816
X170737Y220816
X160737Y220816
X150737Y220816
X140737Y220816
X120737Y220816
X120737Y230816
X110737Y230816
X100737Y230816
X90737Y230816
X90737Y220816
X100737Y220816
X110737Y220816
X110737Y240816
X100737Y240816
X90737Y240816
X120737Y240816
X220737Y240816
X240737Y240816
X250737Y240816
X260737Y240816
X270737Y240816
X270737Y230816
X260737Y230816
X250737Y230816
X240737Y230816
X240737Y220816
X250737Y220816
X260737Y220816
X270737Y220816
X267154Y188965
X267154Y168965
T02
X279674Y140146
X279674Y130146
X279674Y120146
T03
X30619Y21564
X70619Y21564
X70619Y61564
X30619Y61564
X30619Y222351
X70619Y222351
X70619Y262351
X30619Y262351
T04
X21091Y175422
X80146Y175422
X139202Y175422
X198257Y175422
X198257Y108493
X139202Y108493
X80146Y108493
X21091Y108493
M30
